<svg width="251" height="95" viewBox="0 0 251 95" fill="none" xmlns="http://www.w3.org/2000/svg">
<path fill-rule="evenodd" clip-rule="evenodd" d="M129.44 -106.09C148.253 -104.125 167.427 -105.686 184.659 -98.4934C202.843 -90.9035 218.685 -79.1341 230.071 -64.0869C242.004 -48.3175 251.403 -30.0282 250.987 -10.8416C250.573 8.21699 237.41 24.2955 227.787 41.1953C217.761 58.8047 212.522 81.3528 193.283 90.4996C174.047 99.645 150.454 92.8042 129.44 87.9532C111.704 83.8589 96.4929 74.7577 81.8081 64.7657C68.4465 55.674 59.452 43.2294 47.7603 32.376C31.8311 17.5888 3.98165 9.67097 0.36157 -10.8416C-3.13437 -30.6507 19.5928 -45.7971 30.935 -62.9616C42.0312 -79.7538 47.1127 -102.379 66.4412 -110.841C85.7829 -119.31 108.142 -108.315 129.44 -106.09Z" fill="#1877F2"/>
</svg>
